<?xml version="1.0" encoding="ISO-8859-1" standalone="no"?>
<!DOCTYPE svg PUBLIC "-//W3C//DTD SVG 1.1//EN" "http://www.w3.org/Graphics/SVG/1.1/DTD/svg11.dtd">
<svg version="1.1" baseProfile="full" id="body" width="8in" height="8in" viewBox="0 0 1 1" preserveAspectRatio="none" xmlns="http://www.w3.org/2000/svg" xmlns:xlink="http://www.w3.org/1999/xlink" xmlns:ev="http://www.w3.org/2001/xml-events">
<title>SVG drawing</title>
<desc>This was produced by version 4.4 of GNU libplot, a free library for exporting 2-D vector graphics.</desc>
<rect id="background" x="0" y="0" width="1" height="1" stroke="none" fill="white"/>
<g id="content" transform="translate(0.1875,0.4125) scale(1,-1) scale(0.125) " xml:space="preserve" stroke="black" stroke-linecap="butt" stroke-linejoin="miter" stroke-miterlimit="10.433" stroke-dasharray="none" stroke-dashoffset="0" stroke-opacity="1" fill="none" fill-rule="evenodd" fill-opacity="1" font-style="normal" font-variant="normal" font-weight="normal" font-stretch="normal" font-size-adjust="none" letter-spacing="normal" word-spacing="normal" text-anchor="start">
<rect x="0" y="-0.15" width="0.75" height="0.3" stroke-width="0.0094118" />
<text transform="translate(0.13958,-0.049028) scale(1,-1) scale(0.0069444) " font-family="Helvetica,sans-serif" font-size="20px" stroke="none" fill="black" >c: client</text>
<line x1="0.1" y1="-0.07" x2="0.65" y2="-0.07" stroke-width="0.0094118" />
<rect x="2.5" y="-0.15" width="0.75" height="0.3" stroke-width="0.0094118" />
<text transform="translate(2.6088,-0.049028) scale(1,-1) scale(0.0069444) " font-family="Helvetica,sans-serif" font-size="20px" stroke="none" fill="black" >s: server</text>
<line x1="2.6" y1="-0.07" x2="3.15" y2="-0.07" stroke-width="0.0094118" />
<line x1="0.375" y1="-0.15" x2="0.375" y2="-0.25" stroke-width="0.0094118" stroke-dasharray="0.05, 0.05"/>
<text transform="translate(0.20514,-0.44903) scale(1,-1) scale(0.0069444) " font-family="Helvetica,sans-serif" font-size="20px" stroke="none" fill="black" >Login</text>
<polyline points="0.75,-0.25 0.75,-0.4 0.6,-0.55 0,-0.55 " stroke-width="0.0094118" />
<line x1="2.875" y1="-0.15" x2="2.875" y2="-0.8" stroke-width="0.0094118" stroke-dasharray="0.05, 0.05"/>
<line x1="2.825" y1="-0.8" x2="2.925" y2="-0.8" stroke-width="0.0094118" />
<line x1="0.435" y1="-1.05" x2="2.815" y2="-1.05" stroke-width="0.0094118" />
<polygon points="2.715,-1.0375 2.815,-1.05 2.715,-1.0625 " stroke-width="0.0094118" fill="black" />
<text transform="translate(0.78757,-1.0157) scale(1,-1) scale(0.0069444) " font-family="Helvetica,sans-serif" font-size="20px" stroke="none" fill="black" >login(username, password)</text>
<text transform="translate(1.6057,-1.1824) scale(1,-1) scale(0.0069444) " font-family="Helvetica,sans-serif" font-size="20px" stroke="none" fill="black" > </text>
<line x1="2.815" y1="-1.3" x2="0.435" y2="-1.3" stroke-width="0.0094118" stroke-dasharray="0.05, 0.05"/>
<polyline points="0.535,-1.325 0.435,-1.3 0.535,-1.275 " stroke-width="0.0094118" />
<text transform="translate(1.0306,-1.2657) scale(1,-1) scale(0.0069444) " font-family="Helvetica,sans-serif" font-size="20px" stroke="none" fill="black" >sessionID, userInfo</text>
<text transform="translate(1.6057,-1.4324) scale(1,-1) scale(0.0069444) " font-family="Helvetica,sans-serif" font-size="20px" stroke="none" fill="black" > </text>
<line x1="2.825" y1="-0.8" x2="2.825" y2="-1.3" stroke-width="0.0094118" />
<line x1="2.925" y1="-0.8" x2="2.925" y2="-1.3" stroke-width="0.0094118" />
<line x1="2.825" y1="-1.3" x2="2.925" y2="-1.3" stroke-width="0.0094118" />
<rect x="0" y="-1.55" width="3.25" height="1.3" stroke-width="0.0094118" />
<line x1="0.375" y1="-0.55" x2="0.375" y2="-1.55" stroke-width="0.0094118" stroke-dasharray="0.05, 0.05"/>
<line x1="2.875" y1="-1.3" x2="2.875" y2="-1.55" stroke-width="0.0094118" stroke-dasharray="0.05, 0.05"/>
</g>
</svg>
